<?xml version="1.0" encoding="utf-8"?>
<!-- Generator: Adobe Illustrator 20.0.0, SVG Export Plug-In . SVG Version: 6.00 Build 0)  -->
<svg version="1.1" id="Layer_1" xmlns="http://www.w3.org/2000/svg" xmlns:xlink="http://www.w3.org/1999/xlink" x="0px" y="0px"
	 viewBox="0 0 456.4 107.2" enable-background="new 0 0 456.4 107.2" xml:space="preserve">
<g>
	<g>
		<path fill="#4780C6" d="M125.1,107.2H12c-6.6,0-12-5.4-12-12V12C0,5.4,5.4,0,12,0h113.1c6.6,0,12,5.4,12,12v83.2
			C137.1,101.8,131.7,107.2,125.1,107.2z"/>
	</g>
	<g>
		<text transform="matrix(1 0 0 1 140.739 104.7268)" font-family="'SourceSansPro-Regular'" font-size="26.4965px">CUSTOM CLEANING BUILDER</text>
	</g>
	<path opacity="0.16" fill="#ABE9FF" d="M0,11.8l0,10.7C0,41.3,29.8,56.6,68,56.6s69.1-15.3,69.1-34.1V12.3c0,0,0.4-10.4-10.9-12.3
		h-115C11.2,0,0.8,0.6,0,11.8z"/>
	<path id="XMLID_1137_" fill="#FFFFFF" d="M50.8,33.1c3.7-7.1,15.3-2.9,11.8,4.3l2.7,12.8l10.5,6.5c1.8,1.2,2.4,3.5,1.2,5.4
		c-1.1,1.8-3.5,2.4-5.3,1.2L59.9,56c-0.6-0.3-1.1-0.8-1.4-1.4c0,2,0,4,0.2,6.1L72.5,70c1.1,0.8,1.8,2,2,3.2l5,20.3
		c0.6,2.6-1,5.2-3.6,5.9c-2.6,0.6-5.2-1-5.8-3.6L65.5,77l-5.9-3.2l-1,5.9c-0.1,0.8-0.5,1.6-0.9,2.1L46.6,97.6
		c-0.9,1.2-2.3,1.9-3.7,2c0,0-0.1,0-0.1,0h0H30.7c-1.1,0-1.8-0.9-2-2l-2-18h0.7c0-2.6,1.1-4.9,2.7-6.6c1.7-1.7,4-2.8,6.6-2.8
		c2.6,0,5,1,6.7,2.8c1.7,1.7,2.7,4,2.7,6.6h0.7l-0.1,1l2.6-3.7l1.4-8.1l-2.5-1.4l0,0c-1.2-0.8-2-2.1-2.1-3.6
		c-0.3-3.5-0.4-6.8-0.3-10.1l-6.1-5c-0.2-0.2-0.4-0.4-0.6-0.7c-1.3-1.6-1-4.1,0.7-5.4l10.5-8.3C50.4,33.9,50.6,33.5,50.8,33.1
		L50.8,33.1z M98.7,93.9L76.7,65.7c-0.5-0.6-0.4-1.6,0.1-2.1c0.6-0.5,1.5-0.4,2,0.1l23.3,30.1h9.8c3,0,5.5,2.5,5.5,5.5l0,0H85.2l0,0
		c0-3.1,2.5-5.5,5.5-5.5H98.7z M68.5,18v2.6c0,3.9-3.1,7-7,7l0,0c-3.9,0-7-3.1-7-7V18H68.5z M61.5,7L61.5,7c3.9,0,7.1,2.7,7.9,6.3
		h7.6l0,0c0,1.3-1.1,2.4-2.4,2.4c-7.1,0-14.2,0-21.3,0v-0.6C53.4,10.6,57.1,7,61.5,7L61.5,7z M29.3,79.6h0.6h13.6h0.6
		c0-2-0.8-3.9-2.2-5.2c-1.3-1.4-3.2-2.2-5.3-2.2c-2,0-3.9,0.8-5.2,2.2C30.1,75.7,29.3,77.5,29.3,79.6L29.3,79.6z"/>
	<g>
		<text transform="matrix(1 0 0 1 142.8849 82.2927)" font-family="'SourceSansPro-Regular'" font-size="12.2538px">THE  </text>
	</g>
</g>
</svg>
