<?xml version="1.0" encoding="utf-8"?>
<!-- Generator: Adobe Illustrator 20.0.0, SVG Export Plug-In . SVG Version: 6.00 Build 0)  -->
<svg version="1.1" id="Layer_1" xmlns="http://www.w3.org/2000/svg" xmlns:xlink="http://www.w3.org/1999/xlink" x="0px" y="0px"
	 viewBox="0 0 360 110" enable-background="new 0 0 360 110" xml:space="preserve">
<path fill="#4780C6" d="M359,110H1c-0.6,0-1-0.4-1-1V1c0-0.6,0.4-1,1-1h358c0.5,0,1,0.4,1,1v108C360,109.5,359.5,110,359,110z"/>
<g>
	<text transform="matrix(1 0 0 1 83.5386 66.0302)" fill="#FFFFFF" font-family="'SourceSansPro-Regular'" font-size="33.172px">CUSTOM CLEANING</text>
</g>
<path id="XMLID_1137_" fill="#FFFFFF" d="M33.7,32.4c4-7.6,16.5-3.1,12.7,4.6l2.9,13.8l11.3,7c2,1.2,2.6,3.8,1.3,5.8
	c-1.2,2-3.8,2.5-5.7,1.3l-12.7-7.8c-0.6-0.3-1.1-0.9-1.5-1.5c0,2.1,0,4.3,0.2,6.6l14.9,10c1.2,0.9,2,2.1,2.2,3.4l5.4,21.9
	c0.7,2.8-1.1,5.6-3.9,6.3c-2.8,0.7-5.6-1.1-6.3-3.9l-4.9-20.2l-6.4-3.5l-1.1,6.4c-0.1,0.9-0.5,1.7-1,2.3l-12,17
	c-1,1.3-2.5,2.1-4,2.1c0,0-0.1,0-0.1,0h0H12c-1.1,0-2-1-2.1-2.1L7.7,82.6h0.7c0-2.8,1.1-5.3,3-7.1c1.8-1.9,4.4-3,7.1-3
	c2.8,0,5.4,1.1,7.2,3c1.8,1.8,3,4.4,3,7.1h0.7l-0.1,1.1l2.8-4l1.5-8.8l-2.7-1.5l0,0c-1.2-0.9-2.2-2.3-2.3-3.9
	c-0.3-3.8-0.4-7.4-0.3-10.9l-6.6-5.4c-0.2-0.2-0.5-0.4-0.7-0.7c-1.4-1.8-1.1-4.4,0.7-5.8L33,33.8C33.3,33.3,33.5,32.9,33.7,32.4
	L33.7,32.4z M85.3,98L61.7,67.7c-0.6-0.7-0.5-1.7,0.1-2.2c0.7-0.6,1.6-0.5,2.2,0.1L89.2,98h10.5c3.3,0,5.9,2.7,5.9,6l0,0H70.8l0,0
	c0-3.3,2.7-6,6-6H85.3z M52.8,16.1v2.8c0,4.2-3.4,7.6-7.6,7.6l0,0c-4.2,0-7.6-3.4-7.6-7.6v-2.8H52.8z M45.3,4.3L45.3,4.3
	c4.2,0,7.7,2.9,8.6,6.8h8.2l0,0c0,1.4-1.1,2.6-2.6,2.6c-7.7,0-15.4,0-23,0v-0.6C36.5,8.2,40.4,4.3,45.3,4.3L45.3,4.3z M10.5,82.6
	h0.7h14.7h0.7c0-2.2-0.9-4.2-2.3-5.6c-1.4-1.5-3.4-2.3-5.7-2.3c-2.2,0-4.2,0.9-5.6,2.3C11.4,78.4,10.5,80.4,10.5,82.6L10.5,82.6z"/>
<g>
	<text transform="matrix(1 0 0 1 227.616 101.2157)" fill="#FFFFFF" font-family="'SourceSansPro-Regular'" font-size="33.172px">BUILDER</text>
</g>
<g>
	<text transform="matrix(1 0 0 1 83.5386 30.8093)" fill="#FFFFFF" font-family="'SourceSansPro-Regular'" font-size="33.172px">THE</text>
</g>
</svg>
