<?xml version="1.0" encoding="utf-8"?>
<!-- Generator: Adobe Illustrator 20.0.0, SVG Export Plug-In . SVG Version: 6.00 Build 0)  -->
<svg version="1.1" id="Layer_1" xmlns="http://www.w3.org/2000/svg" xmlns:xlink="http://www.w3.org/1999/xlink" x="0px" y="0px"
	 viewBox="0 0 373.2 112.8" enable-background="new 0 0 373.2 112.8" xml:space="preserve">
<g>
	<path fill="#4780C6" d="M355,110.8H13.6c-6.6,0-12-5.4-12-12V15.5c0-6.6,5.4-12,12-12H355c6.6,0,12,5.4,12,12v83.2
		C367,105.4,361.6,110.8,355,110.8z"/>
</g>
<path opacity="0.16" fill="#ABE9FF" d="M1.2,14.1C6.7,3.5,10.6,3.9,56.8,3.5h254.7c57.2,0,52.9,0,55.5,10.6l-0.5,18.2
	c0,27.4-81.7,49.7-182.4,49.7S1.7,59.8,1.7,32.3L1.2,14.1z"/>
<path fill="none" stroke="#FFFFFF" stroke-width="2.232" stroke-miterlimit="10" d="M355,110.8H13.6c-6.6,0-12-5.4-12-12V15.5
	c0-6.6,5.4-12,12-12H355c6.6,0,12,5.4,12,12v83.2C367,105.4,361.6,110.8,355,110.8z"/>
<g>
	<text transform="matrix(1 0 0 1 11.5912 66.2928)" fill="#FFFFFF" font-family="'SourceSansPro-Regular'" font-size="42.6492px">CUSTOM CLEANING</text>
</g>
<g>
	<text transform="matrix(1 0 0 1 109.5912 104.5412)" fill="#FFFFFF" font-family="'SourceSansPro-Regular'" font-size="42.6492px">BUILDER</text>
</g>
<g>
	<text transform="matrix(1 0 0 1 155.5918 28.5779)" fill="#FFFFFF" font-family="'SourceSansPro-Regular'" font-size="26.1782px">THE</text>
</g>
</svg>
