<?xml version="1.0" encoding="utf-8"?>
<!-- Generator: Adobe Illustrator 20.0.0, SVG Export Plug-In . SVG Version: 6.00 Build 0)  -->
<svg version="1.1" id="Layer_1" xmlns="http://www.w3.org/2000/svg" xmlns:xlink="http://www.w3.org/1999/xlink" x="0px" y="0px"
	 viewBox="0 0 592.4 459.4" enable-background="new 0 0 592.4 459.4" xml:space="preserve">
<g>
	<path fill="#4780C6" d="M580,464.4H11.3c-8.5,0-15.5-7-15.5-15.5V10.8c0-8.5,7-15.5,15.5-15.5H580c8.5,0,15.5,7,15.5,15.5v438.1
		C595.5,457.4,588.5,464.4,580,464.4z"/>
</g>
<path opacity="0.16" fill="#ABE9FF" enable-background="new    " d="M595.9,26.2l-0.8,54.5c0,82-136.2,148.1-301,148.1
	S-5.2,162.3-5.2,80.4V5.2c0,0,1-8.9,9-9.5h579.4c0,0,11.4,3.4,12.1,12.6l0.6,10.1V26.2z"/>
<g>
	<path fill="#FFFFFF" d="M147.1,98.1c32.5,0,58.3,15.9,74.5,33.8l-19.6,22c-14.6-15.5-32.1-25.4-54.5-25.4
		c-52.1,0-86.6,42.5-86.6,110.4c0,68.7,32.9,112,85,112c25.8,0,45-10.8,62.5-30.4l19.6,21.3c-21.3,25.1-48.3,39.7-82.9,39.7
		c-68.7,0-120-52.5-120-141.7C25,151.8,77,98.1,147.1,98.1z"/>
	<path fill="#FFFFFF" d="M374.9,98.1c37.1,0,62,17.1,78.3,33.8l-20,22c-13.8-14.6-30.8-25.4-57.9-25.4c-55.4,0-90.8,42.5-90.8,110.4
		c0,68.7,32.5,112,90.8,112c19.6,0,38.8-6.2,49.6-16.2v-71.3H367v-28.8h89.6v115c-17.9,17.7-48.3,31.8-85.1,31.8
		c-71.7,0-122.9-52.5-122.9-141.7C248.7,151.8,301.5,98.1,374.9,98.1z"/>
	<path fill="#FFFFFF" d="M519.4,103.1h34.9v273.3h-34.9V103.1z"/>
</g>
</svg>
