<?xml version="1.0" encoding="utf-8"?>
<!-- Generator: Adobe Illustrator 20.0.0, SVG Export Plug-In . SVG Version: 6.00 Build 0)  -->
<svg version="1.1" id="Layer_1" xmlns="http://www.w3.org/2000/svg" xmlns:xlink="http://www.w3.org/1999/xlink" x="0px" y="0px"
	 viewBox="0 0 470.1 363.8" enable-background="new 0 0 470.1 363.8" xml:space="preserve">
<g>
	<g>
		<path fill="#4780C6" d="M454.6,363.8H13.5c-6.6,0-12-5.4-12-12V12c0-6.6,5.4-12,12-12h441.1c6.6,0,12,5.4,12,12v339.8
			C466.6,358.4,461.2,363.8,454.6,363.8z"/>
	</g>
	<path opacity="0.16" fill="#ABE9FF" enable-background="new    " d="M466.6,24.5L466,66.8c0,63.6-103.7,115.1-231.5,115.1
		S2.3,130.3,2.3,66.8V8.4c0,0,0.8-6.9,7-7.4h449.4c0,0,6.4,0.5,6.9,7.6l-0.2,14.7L466.6,24.5z"/>
	<path fill="none" stroke="#FFFFFF" stroke-width="3" stroke-miterlimit="10" d="M454.6,363.8H13.5c-6.6,0-12-5.4-12-12V12
		c0-6.6,5.4-12,12-12h441.1c6.6,0,12,5.4,12,12v339.8C466.6,358.4,461.2,363.8,454.6,363.8z"/>
	<g>
		<path fill="#FFFFFF" d="M118.8,79.7c25.2,0,45.2,12.3,57.8,26.2L161.4,123c-11.3-12-24.9-19.7-42.3-19.7
			c-40.4,0-67.2,33-67.2,85.6c0,53.3,25.5,86.9,65.9,86.9c20,0,34.9-8.4,48.5-23.6l15.2,16.5c-16.5,19.5-37.5,30.8-64.3,30.8
			c-53.3,0-93.1-40.7-93.1-109.9C24.1,121.4,64.5,79.7,118.8,79.7z"/>
		<path fill="#FFFFFF" d="M295.5,79.7c28.8,0,48.1,13.3,60.7,26.2L340.7,123c-10.7-11.3-23.9-19.7-44.9-19.7
			c-43,0-70.4,33-70.4,85.6c0,53.3,25.2,86.9,70.4,86.9c15.2,0,30.1-4.8,38.5-12.6v-55.3h-44.9v-22.3h69.5v89.2
			c-13.9,13.7-37.5,24.7-66,24.7c-55.6,0-95.3-40.7-95.3-109.9C197.6,121.4,238.6,79.7,295.5,79.7z"/>
		<path fill="#FFFFFF" d="M407.6,83.6h27.1v212h-27.1V83.6z"/>
	</g>
</g>
</svg>
