<?xml version="1.0" encoding="utf-8"?>
<!-- Generator: Adobe Illustrator 20.0.0, SVG Export Plug-In . SVG Version: 6.00 Build 0)  -->
<svg version="1.1" id="Layer_1" xmlns="http://www.w3.org/2000/svg" xmlns:xlink="http://www.w3.org/1999/xlink" x="0px" y="0px"
	 viewBox="0 0 1024 768" enable-background="new 0 0 1024 768" xml:space="preserve">
<g>
	<g>
		<text transform="matrix(1 0 0 1 524.4705 440.0371)"><tspan x="0" y="0" font-family="'SourceSansPro-Regular'" font-size="119.6786px">GROUP</tspan><tspan x="0" y="143.6" font-family="'SourceSansPro-Regular'" font-size="119.6786px">  </tspan></text>
	</g>
	<g>
		<text transform="matrix(1 0 0 1 491.783 330.5869)"><tspan x="0" y="0" font-family="'SourceSansPro-Regular'" font-size="119.6786px">CLEANING</tspan><tspan x="0" y="143.6" font-family="'SourceSansPro-Regular'" font-size="119.6786px">  </tspan></text>
	</g>
	<g>
		<text transform="matrix(1 0 0 1 894.9608 440.0381)"><tspan x="0" y="0" font-family="'SourceSansPro-Regular'" font-size="55.3474px">INC.</tspan><tspan x="0" y="66.4" font-family="'SourceSansPro-Regular'" font-size="55.3474px">  </tspan></text>
	</g>
	<g>
		<path fill="#4780C6" d="M476.3,517.8H35.2c-6.6,0-12-5.4-12-12V166c0-6.6,5.4-12,12-12h441.1c6.6,0,12,5.4,12,12v339.8
			C488.3,512.4,482.9,517.8,476.3,517.8z"/>
	</g>
	<path opacity="0.16" fill="#ABE9FF" d="M488.3,178.5l-0.6,42.3c0,63.6-103.7,115.1-231.5,115.1S24.1,284.3,24.1,220.7l0-58.4
		c0,0,0.8-6.9,7-7.4h449.4c0,0,6.4,0.5,6.9,7.6l-0.2,14.7L488.3,178.5z"/>
	<path fill="none" stroke="#FFFFFF" stroke-width="3" stroke-miterlimit="10" d="M476.3,517.8H35.2c-6.6,0-12-5.4-12-12V166
		c0-6.6,5.4-12,12-12h441.1c6.6,0,12,5.4,12,12v339.8C488.3,512.4,482.9,517.8,476.3,517.8z"/>
	<g>
		<path fill="#FFFFFF" d="M140.5,233.7c25.2,0,45.2,12.3,57.8,26.2L183.2,277c-11.3-12-24.9-19.7-42.3-19.7
			c-40.4,0-67.2,33-67.2,85.6c0,53.3,25.5,86.9,65.9,86.9c20,0,34.9-8.4,48.5-23.6l15.2,16.5c-16.5,19.4-37.5,30.7-64.3,30.7
			c-53.3,0-93.1-40.7-93.1-109.9C45.8,275.4,86.2,233.7,140.5,233.7z"/>
		<path fill="#FFFFFF" d="M317.2,233.7c28.8,0,48.1,13.3,60.7,26.2L362.5,277c-10.7-11.3-23.9-19.7-44.9-19.7
			c-43,0-70.4,33-70.4,85.6c0,53.3,25.2,86.9,70.4,86.9c15.2,0,30.1-4.8,38.5-12.6V362h-44.9v-22.3h69.5v89.2
			c-13.9,13.6-37.5,24.6-65.9,24.6c-55.6,0-95.3-40.7-95.3-109.9C219.3,275.4,260.4,233.7,317.2,233.7z"/>
		<path fill="#FFFFFF" d="M429.4,237.6h27.1v212h-27.1V237.6z"/>
	</g>
</g>
</svg>
