<?xml version="1.0" encoding="utf-8"?>
<!-- Generator: Adobe Illustrator 20.0.0, SVG Export Plug-In . SVG Version: 6.00 Build 0)  -->
<svg version="1.1" id="Layer_1" xmlns="http://www.w3.org/2000/svg" xmlns:xlink="http://www.w3.org/1999/xlink" x="0px" y="0px"
	 viewBox="0 0 980 365.3" enable-background="new 0 0 980 365.3" xml:space="preserve">
<g>
	<g>
		<text transform="matrix(1 0 0 1 502.7478 287.5512)"><tspan x="0" y="0" font-family="'SourceSansPro-Regular'" font-size="119.6786px">GROUP</tspan><tspan x="0" y="143.6" font-family="'SourceSansPro-Regular'" font-size="119.6786px">  </tspan></text>
	</g>
	<g>
		<text transform="matrix(1 0 0 1 470.0603 178.101)"><tspan x="0" y="0" font-family="'SourceSansPro-Regular'" font-size="119.6786px">CLEANING</tspan><tspan x="0" y="143.6" font-family="'SourceSansPro-Regular'" font-size="119.6786px">  </tspan></text>
	</g>
	<g>
		<text transform="matrix(1 0 0 1 873.238 287.5522)"><tspan x="0" y="0" font-family="'SourceSansPro-Regular'" font-size="55.3474px">INC.</tspan><tspan x="0" y="66.4" font-family="'SourceSansPro-Regular'" font-size="55.3474px">  </tspan></text>
	</g>
	<g>
		<path fill="#4780C6" d="M454.6,365.3H13.5c-6.6,0-12-5.4-12-12V13.5c0-6.6,5.4-12,12-12h441.1c6.6,0,12,5.4,12,12v339.8
			C466.6,359.9,461.2,365.3,454.6,365.3z"/>
	</g>
	<path opacity="0.16" fill="#ABE9FF" d="M466.6,26L466,68.3c0,63.6-103.7,115.1-231.5,115.1S2.3,131.8,2.3,68.3l0-58.4
		c0,0,0.8-6.9,7-7.4h449.4c0,0,6.4,0.5,6.9,7.6l-0.2,14.7L466.6,26z"/>
	<path fill="none" stroke="#FFFFFF" stroke-width="3" stroke-miterlimit="10" d="M454.6,365.3H13.5c-6.6,0-12-5.4-12-12V13.5
		c0-6.6,5.4-12,12-12h441.1c6.6,0,12,5.4,12,12v339.8C466.6,359.9,461.2,365.3,454.6,365.3z"/>
	<g>
		<path fill="#FFFFFF" d="M118.8,81.2c25.2,0,45.2,12.3,57.8,26.2l-15.2,17.1c-11.3-12-24.9-19.7-42.3-19.7
			c-40.4,0-67.2,33-67.2,85.6c0,53.3,25.5,86.9,65.9,86.9c20,0,34.9-8.4,48.5-23.6l15.2,16.5C165,289.7,144,301,117.2,301
			c-53.3,0-93.1-40.7-93.1-109.9C24.1,122.9,64.5,81.2,118.8,81.2z"/>
		<path fill="#FFFFFF" d="M295.5,81.2c28.8,0,48.1,13.3,60.7,26.2l-15.5,17.1c-10.7-11.3-23.9-19.7-44.9-19.7
			c-43,0-70.4,33-70.4,85.6c0,53.3,25.2,86.9,70.4,86.9c15.2,0,30.1-4.8,38.5-12.6v-55.3h-44.9v-22.3h69.5v89.2
			C345,290,321.4,301,292.9,301c-55.6,0-95.3-40.7-95.3-109.9C197.6,122.9,238.6,81.2,295.5,81.2z"/>
		<path fill="#FFFFFF" d="M407.6,85.1h27.1v212h-27.1V85.1z"/>
	</g>
</g>
</svg>
