<?xml version="1.0" encoding="utf-8"?>
<!-- Generator: Adobe Illustrator 20.0.0, SVG Export Plug-In . SVG Version: 6.00 Build 0)  -->
<svg version="1.1" id="Layer_1" xmlns="http://www.w3.org/2000/svg" xmlns:xlink="http://www.w3.org/1999/xlink" x="0px" y="0px"
	 viewBox="0 0 369.2 110.8" enable-background="new 0 0 369.2 110.8" xml:space="preserve">
<g>
	<text transform="matrix(1 0 0 1 193.5872 -6.6845)"><tspan x="0" y="0" font-family="'SourceSansPro-Regular'" font-size="26.4965px">   GARBAGE </tspan><tspan x="0" y="31.8" font-family="'SourceSansPro-Regular'" font-size="26.4965px">    </tspan></text>
</g>
<g>
	<path fill="#4780C6" d="M355,108.6H13.6c-6.6,0-12-5.4-12-12V13.3c0-6.6,5.4-12,12-12H355c6.6,0,12,5.4,12,12v83.2
		C367,103.2,361.6,108.6,355,108.6z"/>
</g>
<g>
	<text transform="matrix(1 0 0 1 10.6254 48.4159)" fill="#FFFFFF" font-family="'SourceSansPro-Regular'" font-size="42.6492px">CUSTOM CLEANING</text>
</g>
<g>
	<text transform="matrix(1 0 0 1 107.6254 93.6642)" fill="#FFFFFF" font-family="'SourceSansPro-Regular'" font-size="42.6492px">BUILDER</text>
</g>
<path opacity="0.16" fill="#ABE9FF" d="M1.3,11c5.5-9.7,9.4-9.3,55.5-9.7h254.7c57.2,0,52.9,0,55.5,9.7l-0.5,16.7
	c0,25.2-81.7,45.6-182.4,45.6S1.7,53,1.7,27.8L1.3,11z"/>
<path fill="none" stroke="#FFFFFF" stroke-width="2.232" stroke-miterlimit="10" d="M355,108.6H13.6c-6.6,0-12-5.4-12-12V13.3
	c0-6.6,5.4-12,12-12H355c6.6,0,12,5.4,12,12v83.2C367,103.2,361.6,108.6,355,108.6z"/>
</svg>
