<?xml version="1.0" encoding="utf-8"?>
<!-- Generator: Adobe Illustrator 20.0.0, SVG Export Plug-In . SVG Version: 6.00 Build 0)  -->
<svg version="1.1" id="Layer_1" xmlns="http://www.w3.org/2000/svg" xmlns:xlink="http://www.w3.org/1999/xlink" x="0px" y="0px"
	 viewBox="0 0 101.9 89.3" enable-background="new 0 0 101.9 89.3" xml:space="preserve">
<g>
	<path fill="none" d="M9.5,76.2c-0.8,0.2-1.5,0.5-2,0.8c-0.4,0.2-0.7,0.5-1,0.9c-1,1.2-1.1,2.9-0.3,4.3c1.1,1.8,3.4,2.4,5.2,1.3
		c1.8-1.1,5.2-5.1,4.2-6.9C14.7,75.3,11.7,75.6,9.5,76.2z"/>
	<path d="M40.8,7.1l-2.7,2.8l2,3.4L40,13.2c-1.6,0.9-2.1,3-1.2,4.6l14.4,24.1l-0.9,0.6c-1.2,0.7-1.6,2.3-0.9,3.6l2.1,3.5L33.9,61.2
		l-0.3-0.5c-0.7-1.2-2.2-1.5-3.4-0.9L1.2,77.2c-1.2,0.7-1.5,2.2-0.9,3.4l0.6,1l3.9,6.5c0.7,1.2,2.2,1.5,3.4,0.9l29.1-17.4
		c1.2-0.7,1.5-2.2,0.9-3.4l-0.3-0.5l19.5-11.7l0.9,1.5l1.2,2c0.7,1.2,2.3,1.6,3.6,0.9l0.9-0.6L78.4,84c0.9,1.6,3,2.1,4.6,1.2
		l0.1-0.1l2,3.4l3.7-1.1L44.7,13.6L40.8,7.1z M11.4,83.5c-1.8,1.1-4.1,0.5-5.2-1.3c-0.8-1.4-0.7-3.1,0.3-4.3c0.3-0.3,0.6-0.6,1-0.9
		c0.5-0.3,1.2-0.6,2-0.8c2.3-0.7,5.3-0.9,6.1,0.4C16.6,78.4,13.2,82.5,11.4,83.5z"/>
	<path d="M56.7,1.1c-0.6-1.1-2-1.4-3.1-0.8l-7.2,4.3l-3.3,1.9l-0.2,0.1l0.9,1.4l46.3,77.6l3.6-2.2l7-4.2c1.1-0.6,1.4-2,0.8-3.1
		L56.7,1.1z"/>
</g>
</svg>
