<?xml version="1.0" encoding="utf-8"?>
<!-- Generator: Adobe Illustrator 20.0.0, SVG Export Plug-In . SVG Version: 6.00 Build 0)  -->
<svg version="1.1" id="Layer_1" xmlns="http://www.w3.org/2000/svg" xmlns:xlink="http://www.w3.org/1999/xlink" x="0px" y="0px"
	 viewBox="0 0 1024 768" enable-background="new 0 0 1024 768" xml:space="preserve">
<g>
	<path fill="#FFFFFF" stroke="#000000" stroke-miterlimit="10" d="M-544.5-212.7l-21.8,22.4L-550-163l-0.9,0.5
		c-12.9,7.7-17.1,24.3-9.4,37.2l116.8,195.8l-7.7,4.6c-10,6-13.3,19-7.3,29l16.9,28.3l-158.7,94.8l-2.3-3.9
		c-5.7-9.5-18-12.6-27.4-6.9l-236.4,141.1c-9.5,5.7-12.6,17.9-6.9,27.4l5,8.4l31.5,52.8c5.7,9.5,18,12.6,27.4,6.9L-573,311.9
		c9.5-5.7,12.6-17.9,6.9-27.4l-2.3-3.9l158.7-94.8l7.3,12.2l9.6,16.1c6,10,19,13.3,29,7.3l7.7-4.6l116.8,195.7
		c7.7,12.9,24.4,17.1,37.2,9.4l0.9-0.5l16.3,27.3l30.1-8.6L-513-160L-544.5-212.7z M-784,408.9c-14.6,8.7-33.5,3.9-42.2-10.7
		c-6.8-11.3-5.4-25.2,2.4-35c2.3-2.8,5-5.3,8.2-7.2c3.9-2.3,9.7-4.6,16.2-6.5c18.3-5.3,42.8-7.4,49.2,3.3
		C-741.3,367.4-769.4,400.2-784,408.9z"/>
	<path fill="#FFFFFF" stroke="#000000" stroke-miterlimit="10" d="M-50.8,349.6l-364.5-610.7c-5.2-8.7-16.4-11.5-25.1-6.3
		l-58.9,35.1l-26.5,15.8l-1.5,0.9l7,11.8L-144,426.6l29.6-17.7l57.3-34.2C-48.5,369.5-45.6,358.3-50.8,349.6z"/>
</g>
<path d="M1338-340.2c-69.6,0-126,57.5-126,128.5V49h36v-232.5c0-67.5,39.9-122.2,89.5-122.2S1427-251,1427-183.5V49h37v-260.7
	C1464-282.7,1407.6-340.2,1338-340.2z"/>
<g>
	<path fill="#FFFFFF" d="M1959.6,639.3c-0.4-25-20.5-45.2-45.6-45.2l-101.9,11.6l-1.5-15.4c-0.7-6.4-6.3-11-12.7-10.3l-42.4,4.4
		c-13.3-15.1-44.4-40.8-85.2-55.4c-14.3-5.1-28-8.5-39.5-11.4c-41.6-10.7-57.7-14.7-57.7-76.1v-92.2V233.7
		c0-2.5,1.3-63.5-42.9-108.6c-30.2-30.8-73-46.4-127.7-46.4c-76.6,0-128.8,28.8-155.3,85.6c-2.6,5.5-4.8,11.2-6.8,17
		c-0.7,1.8-1.2,3.7-1.8,5.6c-1.3,4-2.5,8.1-3.6,12.2c-0.6,2.2-1.1,4.5-1.6,6.8c-0.9,3.9-1.8,7.9-2.5,11.9c-0.4,2.3-0.9,4.7-1.2,7.1
		c-0.3,1.6-0.6,3.1-0.8,4.6c0,0-0.1,0,0,0c-4.7,31.4-5.6,65-5.6,99.5v1.9h32V329c0-33,0.5-64.4,4.6-92.6c0.6-4,1-8,1.8-11.9
		c0.1-0.7,0.2-1.3,0.3-2c0.6-3.4,1.3-6.7,2.1-10c0.3-1.1,0.5-2.1,0.8-3.2c1-3.8,1.9-7.6,3.1-11.2c0-0.1,0.1-0.3,0.1-0.4
		c1.1-3.5,2.3-6.9,3.6-10.3c0.4-0.9,0.7-1.8,1.1-2.7c1.3-3.2,2.6-6.3,4.1-9.3c0.1-0.3,0.2-0.6,0.4-0.8c1.6-3.2,3.4-6.3,5.2-9.4
		c0.5-0.7,0.9-1.5,1.4-2.2c1.6-2.6,3.4-5.1,5.2-7.5c0.3-0.4,0.6-0.9,1-1.3c2.1-2.8,4.5-5.4,6.9-7.9c0.6-0.6,1.2-1.1,1.7-1.7
		c2.1-2.1,4.3-4.1,6.6-6c0.5-0.5,1.1-0.9,1.6-1.4c2.8-2.2,5.7-4.3,8.8-6.3c0.6-0.4,1.3-0.8,2-1.2c2.6-1.6,5.4-3.1,8.2-4.6
		c0.8-0.4,1.6-0.8,2.4-1.2c3.5-1.6,7.1-3.2,10.9-4.5c0.7-0.2,1.4-0.5,2-0.7c3.3-1.1,6.8-2.1,10.3-3.1c1.1-0.3,2.1-0.6,3.2-0.8
		c4.3-1,8.7-1.9,13.3-2.6c0.5-0.1,1.1-0.1,1.6-0.2c4.2-0.6,8.6-1.1,13.2-1.5c1.3-0.1,2.7-0.2,4-0.3c5.2-0.3,10.5-0.5,16-0.5
		c45.9,0,80.4,12.4,104.5,36.9c35.2,35.6,33.8,86.1,33.8,86.8v104.3v103.8c0,81.3,31.6,93.3,81.5,106.1c11.4,2.9,23.8,6,36.8,10.6
		c21.2,7.6,41.5,22,52.9,30.7l-38.3,4c-6.4,0.7-11,6.4-10.3,12.8l1.8,16.6l-177.9,20.2c-25.4,0-46.5,20.6-46.5,46V707v63.3
		c0,25.4,21.6,45.6,47,45.6h8.1h8.8c7.5,10,19.7,17,33.4,17c13.7,0,25.9-7,33.4-17h259.8c7.5,12,19.8,17.4,33.7,17.4
		s26.2-5.4,33.7-17.4h5.7h9.8c25.4,0,44.6-20.2,44.6-45.6V640.1L1959.6,639.3z"/>
	<path fill="#FFFFFF" d="M1361.4,788H1341v-12.4c0-9.2-5.1-15.6-13.4-15.6h-36.5c-4.6-19-20.2-37.6-38.2-43.4V346h-30v370.6
		c-19,5.8-30.9,24.4-35.6,43.4H1151c-8.3,0-17,6.4-17,15.6V788h-16.7c-11.4,0-21.3,7.9-21.3,20.6V829h284v-20.4
		C1380,795.9,1372.8,788,1361.4,788z"/>
</g>
<g>
	<path fill="#FFFFFF" d="M-376-387v-4.8v-4.2h-7v-9.4v-3.6h-46.8l34.5-79.8c1.3,0.2,2.5,0.3,3.8,0.3c14.1,0,25.5-11.4,25.5-25.5
		c0-14.1-11.4-25.5-25.5-25.5c-2.6,0-5.1,0.4-7.5,1.1l-64.6-70.5c1.3-5.1,0-10.6-3.9-14.6c-0.4-0.5-0.9-0.9-1.4-1.2
		c0,0-0.1,0-0.1-0.1c-0.5-0.4-0.9-0.7-1.4-1l0,0l0,0c-5.9-3.7-13.8-3.1-19.1,2l-10.1,9.8c-15.5-7-34.5-4.3-47.5,8.3l16.2,16.6
		c-3,7.6-1.5,16.6,4.6,22.8s15,8,22.7,5.2l16.2,16.6c13-12.6,16.2-31.5,9.6-47.2l9.1-8.8l61.2,66.7c-5.7,4.7-9.4,11.8-9.4,19.8
		c0,9.4,5.1,17.6,12.6,22l-35.9,83H-488v3.6v9.4h-8v4.2v4.8h-732v17.2v16.8h75v475h25v-475h544V34v32.1V122h25V66h196v56h25v-475h70
		v-16.8V-387H-376z"/>
</g>
<path d="M-163,964.1v-23.9c0-29.8-8.6-52.2-26.7-52.2h-108.5c-0.3-42-31.8-81.4-73.8-87.9V693h16V501h-16V399h51v-8h74v-26h-74v-8
	h-51v-67h-26v67h-43v8h-84v26h84v8h43v102h-16v192h16v107.1c-43,6.5-69,45.9-69.3,87.9h-108.4c-18,0-32.3,22.3-32.3,52.2v23.9
	c-18,7-25.5,14.8-25.5,23c0,29.1,112.3,52.7,250.9,52.7s247.9-23.6,247.9-52.7C-134.7,978.9-144,971.1-163,964.1z"/>
<path id="XMLID_1137_" fill="#FFFFFF" d="M403,217.8c30.3-58.1,126.3-23.7,97.1,35.4L522,358.4l86.2,53.3
	c15,9.5,19.7,28.9,10.2,44.2c-9.1,15-28.8,19.4-43.8,10.2l-96.7-59.9c-4.7-2.6-8.8-6.6-11.7-11.3c0,16.1,0.4,32.9,1.5,50l113.9,76.7
	c9.1,6.6,15,16.1,16.8,26.3l40.9,166.9c5.1,21.6-8,43.1-29.6,48.2c-21.2,5.1-42.7-8-47.8-29.6l-37.6-154.1l-48.6-26.7l-8.4,48.6
	c-1.1,6.6-4,12.8-7.7,17.5l-91.3,130c-7.3,9.9-19,15.7-30.7,16.1c-0.4,0-0.7,0-0.7,0h-0.4h-99.3c-8.8,0-15-7.3-16.1-16.1
	l-16.8-148.3h5.5c0-21.2,8.8-40.5,22.6-54.4c13.9-14.2,33.2-22.6,54.4-22.6c21.5,0,40.9,8.4,54.8,22.6
	c13.9,13.9,22.6,33.2,22.6,54.4h5.5l-1.1,8.4l21.5-30.7l11.7-66.8l-20.8-11.3l0,0c-9.5-6.6-16.4-17.5-17.5-30
	c-2.2-28.9-3.3-56.3-2.6-82.9L311,346c-1.8-1.5-3.7-3.3-5.1-5.5c-11-13.5-8.4-33.6,5.5-44.6l86.5-67.9
	C399.7,224.7,401.2,221.1,403,217.8L403,217.8z M796.9,718.6L616.6,486.6c-4.4-5.1-3.7-12.8,1.1-17.2c5.1-4.4,12.4-3.7,16.8,1.1
	l192,248h80.3c24.8,0,45.3,20.5,45.3,45.7l0,0H685.9l0,0c0-25.2,20.4-45.7,45.6-45.7H796.9z M549,93.2v21.6
	c0,31.8-25.9,57.7-57.7,57.7l0,0c-31.8,0-57.7-25.9-57.7-57.7V93.2H549z M491.3,3L491.3,3c31.8,0,58.8,22.3,65.4,51.9h62.8l0,0
	c0,11-8.8,19.7-19.7,19.7c-58.4,0-117.2,0-175.6,0v-4.7C424.2,33,454.5,3,491.3,3L491.3,3z M225.9,600.6h5.1h112.1h5.1
	c0-16.8-6.9-32.1-17.9-43.1c-11-11.3-26.3-17.9-43.4-17.9c-16.8,0-32.1,6.6-43.1,17.9C232.8,568.4,225.9,583.8,225.9,600.6
	L225.9,600.6z"/>
</svg>
