<?xml version="1.0" encoding="utf-8"?>
<!-- Generator: Adobe Illustrator 20.0.0, SVG Export Plug-In . SVG Version: 6.00 Build 0)  -->
<svg version="1.1" id="Layer_1" xmlns="http://www.w3.org/2000/svg" xmlns:xlink="http://www.w3.org/1999/xlink" x="0px" y="0px"
	 viewBox="0 0 1024 768" enable-background="new 0 0 1024 768" xml:space="preserve">
<g>
	<path fill="#FFFFFF" stroke="#000000" stroke-miterlimit="10" d="M-544.5-212.7l-21.8,22.4l16.3,27.3l-0.9,0.5
		c-12.9,7.7-17.1,24.3-9.4,37.2l116.8,195.8l-7.7,4.6c-10,6-13.3,19-7.3,29l16.9,28.3l-158.7,94.8l-2.3-3.9
		c-5.7-9.5-18-12.6-27.4-6.9l-236.4,141.1c-9.5,5.7-12.6,17.9-6.9,27.4l5,8.4l31.5,52.8c5.7,9.5,18,12.6,27.4,6.9l236.4-141.1
		c9.5-5.7,12.6-17.9,6.9-27.4l-2.3-3.9l158.7-94.8l7.3,12.2l9.6,16.1c6,10,19,13.3,29,7.3l7.7-4.6l116.8,195.7
		c7.7,12.9,24.4,17.1,37.2,9.4l0.9-0.5l16.3,27.3l30.1-8.6l-358.2-600.1L-544.5-212.7z M-784,408.9c-14.6,8.7-33.5,3.9-42.2-10.7
		c-6.8-11.3-5.4-25.2,2.4-35c2.3-2.8,5-5.3,8.2-7.2c3.9-2.3,9.7-4.6,16.2-6.5c18.3-5.3,42.8-7.4,49.2,3.3
		C-741.3,367.4-769.4,400.2-784,408.9z"/>
	<path fill="#FFFFFF" stroke="#000000" stroke-miterlimit="10" d="M-50.8,349.6l-364.5-610.7c-5.2-8.7-16.4-11.5-25.1-6.3
		l-58.9,35.1l-26.5,15.8l-1.5,0.9l7,11.8L-144,426.6l29.6-17.7l57.3-34.2C-48.5,369.5-45.6,358.3-50.8,349.6z"/>
</g>
<path d="M1338-340.2c-69.6,0-126,57.5-126,128.5V49h36v-232.5c0-67.5,39.9-122.2,89.5-122.2S1427-251,1427-183.5V49h37v-260.7
	C1464-282.7,1407.6-340.2,1338-340.2z"/>
<g>
	<path fill="#FFFFFF" d="M1959.6,639.3c-0.4-25-20.5-45.2-45.6-45.2l-101.9,11.6l-1.5-15.4c-0.7-6.4-6.3-11-12.7-10.3l-42.4,4.4
		c-13.3-15.1-44.4-40.8-85.2-55.4c-14.3-5.1-28-8.5-39.5-11.4c-41.6-10.7-57.7-14.7-57.7-76.1v-92.2V233.7
		c0-2.5,1.3-63.5-42.9-108.6c-30.2-30.8-73-46.4-127.7-46.4c-76.6,0-128.8,28.8-155.3,85.6c-2.6,5.5-4.8,11.2-6.8,17
		c-0.7,1.8-1.2,3.7-1.8,5.6c-1.3,4-2.5,8.1-3.6,12.2c-0.6,2.2-1.1,4.5-1.6,6.8c-0.9,3.9-1.8,7.9-2.5,11.9c-0.4,2.3-0.9,4.7-1.2,7.1
		c-0.3,1.6-0.6,3.1-0.8,4.6c0,0-0.1,0,0,0c-4.7,31.4-5.6,65-5.6,99.5v1.9h32v-1.9c0-33,0.5-64.4,4.6-92.6c0.6-4,1-8,1.8-11.9
		c0.1-0.7,0.2-1.3,0.3-2c0.6-3.4,1.3-6.7,2.1-10c0.3-1.1,0.5-2.1,0.8-3.2c1-3.8,1.9-7.6,3.1-11.2c0-0.1,0.1-0.3,0.1-0.4
		c1.1-3.5,2.3-6.9,3.6-10.3c0.4-0.9,0.7-1.8,1.1-2.7c1.3-3.2,2.6-6.3,4.1-9.3c0.1-0.3,0.2-0.6,0.4-0.8c1.6-3.2,3.4-6.3,5.2-9.4
		c0.5-0.7,0.9-1.5,1.4-2.2c1.6-2.6,3.4-5.1,5.2-7.5c0.3-0.4,0.6-0.9,1-1.3c2.1-2.8,4.5-5.4,6.9-7.9c0.6-0.6,1.2-1.1,1.7-1.7
		c2.1-2.1,4.3-4.1,6.6-6c0.5-0.5,1.1-0.9,1.6-1.4c2.8-2.2,5.7-4.3,8.8-6.3c0.6-0.4,1.3-0.8,2-1.2c2.6-1.6,5.4-3.1,8.2-4.6
		c0.8-0.4,1.6-0.8,2.4-1.2c3.5-1.6,7.1-3.2,10.9-4.5c0.7-0.2,1.4-0.5,2-0.7c3.3-1.1,6.8-2.1,10.3-3.1c1.1-0.3,2.1-0.6,3.2-0.8
		c4.3-1,8.7-1.9,13.3-2.6c0.5-0.1,1.1-0.1,1.6-0.2c4.2-0.6,8.6-1.1,13.2-1.5c1.3-0.1,2.7-0.2,4-0.3c5.2-0.3,10.5-0.5,16-0.5
		c45.9,0,80.4,12.4,104.5,36.9c35.2,35.6,33.8,86.1,33.8,86.8v104.3v103.8c0,81.3,31.6,93.3,81.5,106.1c11.4,2.9,23.8,6,36.8,10.6
		c21.2,7.6,41.5,22,52.9,30.7l-38.3,4c-6.4,0.7-11,6.4-10.3,12.8l1.8,16.6l-177.9,20.2c-25.4,0-46.5,20.6-46.5,46v18.5v63.3
		c0,25.4,21.6,45.6,47,45.6h8.1h8.8c7.5,10,19.7,17,33.4,17c13.7,0,25.9-7,33.4-17h259.8c7.5,12,19.8,17.4,33.7,17.4
		s26.2-5.4,33.7-17.4h5.7h9.8c25.4,0,44.6-20.2,44.6-45.6V640.1L1959.6,639.3z"/>
	<path fill="#FFFFFF" d="M1361.4,788H1341v-12.4c0-9.2-5.1-15.6-13.4-15.6h-36.5c-4.6-19-20.2-37.6-38.2-43.4V346h-30v370.6
		c-19,5.8-30.9,24.4-35.6,43.4H1151c-8.3,0-17,6.4-17,15.6V788h-16.7c-11.4,0-21.3,7.9-21.3,20.6V829h284v-20.4
		C1380,795.9,1372.8,788,1361.4,788z"/>
</g>
<g>
	<path fill="#FFFFFF" d="M-376-387v-4.8v-4.2h-7v-9.4v-3.6h-46.8l34.5-79.8c1.3,0.2,2.5,0.3,3.8,0.3c14.1,0,25.5-11.4,25.5-25.5
		c0-14.1-11.4-25.5-25.5-25.5c-2.6,0-5.1,0.4-7.5,1.1l-64.6-70.5c1.3-5.1,0-10.6-3.9-14.6c-0.4-0.5-0.9-0.9-1.4-1.2
		c0,0-0.1,0-0.1-0.1c-0.5-0.4-0.9-0.7-1.4-1c0,0,0,0,0,0l0,0c-5.9-3.7-13.8-3.1-19.1,2l-10.1,9.8c-15.5-7-34.5-4.3-47.5,8.3
		l16.2,16.6c-3,7.6-1.5,16.6,4.6,22.8c6.1,6.2,15,8,22.7,5.2l16.2,16.6c13-12.6,16.2-31.5,9.6-47.2l9.1-8.8l61.2,66.7
		c-5.7,4.7-9.4,11.8-9.4,19.8c0,9.4,5.1,17.6,12.6,22l-35.9,83H-488v3.6v9.4h-8v4.2v4.8h-732v17.2v16.8h75v475h25v-475h544V34v32.1
		V122h25V66h196v56h25v-475h70v-16.8V-387H-376z"/>
</g>
<path fill="#FFFFFF" d="M-799,632.1v-23.9c0-29.8-8.6-52.2-26.7-52.2h-108.5c-0.3-42-31.8-81.4-73.8-87.9V361h16V169h-16V67h51v-8
	h74V33h-74v-8h-51v-67h-26v67h-43v8h-84v26h84v8h43v102h-16v192h16v107.1c-43,6.5-69,45.9-69.3,87.9h-108.4
	c-18,0-32.3,22.3-32.3,52.2v23.9c-18,7-25.5,14.8-25.5,23c0,29.1,112.3,52.7,250.9,52.7c138.6,0,247.9-23.6,247.9-52.7
	C-770.7,646.9-780,639.1-799,632.1z"/>
<g>
	<g>
		<path fill="#4780C6" d="M969,751.1H55.3c-6.6,0-12-5.4-12-12V29.5c0-6.6,5.4-12,12-12H969c6.6,0,12,5.4,12,12v709.6
			C981,745.7,975.6,751.1,969,751.1z"/>
	</g>
	<path opacity="0.16" fill="#ABE9FF" d="M981,67l-1.2,85.2c0,128.2-209,232.1-466.8,232.1S45,280.3,45,152.1l0-117.8
		c0,0,1.6-13.9,14.1-14.9h906.2c0,0,13,1,13.9,15.3l-0.4,29.6L981,67z"/>
	<g>
		<path fill="#FFFFFF" d="M434.4,121.8L416,140.7l13.7,23l-0.7,0.4c-10.8,6.5-14.4,20.5-7.9,31.3l98.3,164.8l-6.5,3.9
			c-8.5,5-11.2,16-6.2,24.4l14.2,23.8l-133.6,79.8l-1.9-3.3c-4.8-8-15.1-10.6-23.1-5.8l-199,118.8c-8,4.8-10.6,15.1-5.8,23.1
			l4.2,7.1l26.5,44.5c4.8,8,15.1,10.6,23.1,5.8l199-118.8c8-4.8,10.6-15.1,5.8-23.1l-1.9-3.3l133.6-79.8l6.1,10.3l8.1,13.5
			c5,8.5,16,11.2,24.4,6.2l6.5-3.9l98.3,164.8c6.5,10.8,20.5,14.4,31.3,7.9l0.7-0.4l13.7,23l25.3-7.2L461,166.4L434.4,121.8z
			 M232.8,645.1c-12.3,7.3-28.2,3.3-35.5-9c-5.7-9.5-4.5-21.2,2-29.4c1.9-2.4,4.2-4.4,6.9-6.1c3.3-1.9,8.1-3.9,13.7-5.5
			c15.4-4.5,36.1-6.3,41.5,2.8C268.7,610.1,245.1,637.7,232.8,645.1z"/>
		<path fill="#FFFFFF" d="M849.9,595.2L543.1,81.1c-4.4-7.3-13.8-9.7-21.1-5.3l-49.6,29.6l-22.3,13.3l-1.3,0.8l5.9,9.9l316.7,530.6
			l24.9-14.9l48.2-28.8C851.9,611.9,854.3,602.5,849.9,595.2z"/>
	</g>
	<path fill="none" stroke="#FFFFFF" stroke-width="3" stroke-miterlimit="10" d="M969,751.1H55.3c-6.6,0-12-5.4-12-12V29.5
		c0-6.6,5.4-12,12-12H969c6.6,0,12,5.4,12,12v709.6C981,745.7,975.6,751.1,969,751.1z"/>
</g>
</svg>
