<?xml version="1.0" encoding="utf-8"?>
<!-- Generator: Adobe Illustrator 20.0.0, SVG Export Plug-In . SVG Version: 6.00 Build 0)  -->
<svg version="1.1" id="Layer_1" xmlns="http://www.w3.org/2000/svg" xmlns:xlink="http://www.w3.org/1999/xlink" x="0px" y="0px"
	 viewBox="0 0 1024 768" enable-background="new 0 0 1024 768" xml:space="preserve">
<g>
	<path fill="#FFFFFF" d="M406.5,78.3l-21.8,22.4l16.3,27.3l-0.9,0.5c-12.9,7.7-17.1,24.3-9.4,37.2l116.8,195.8l-7.7,4.6
		c-10,6-13.3,19-7.3,29l16.9,28.3l-158.7,94.8l-2.3-3.9c-5.7-9.5-18-12.6-27.4-6.9L84.4,648.5c-9.5,5.7-12.6,17.9-6.9,27.4l5,8.4
		l31.5,52.8c5.7,9.5,18,12.6,27.4,6.9l236.4-141.1c9.5-5.7,12.6-17.9,6.9-27.4l-2.3-3.9L541.3,477l7.3,12.2l9.6,16.1
		c6,10,19,13.3,29,7.3l7.7-4.6l116.8,195.7c7.7,12.9,24.4,17.1,37.2,9.4l0.9-0.5l16.3,27.3l30.1-8.6L438.1,131.3L406.5,78.3z
		 M167,699.9c-14.6,8.7-33.5,3.9-42.2-10.7c-6.8-11.3-5.4-25.2,2.4-35c2.3-2.8,5-5.3,8.2-7.2c3.9-2.3,9.7-4.6,16.2-6.5
		c18.3-5.3,42.8-7.4,49.2,3.3C209.7,658.4,181.6,691.2,167,699.9z"/>
	<path fill="#FFFFFF" d="M900.2,640.6L535.7,29.9c-5.2-8.7-16.4-11.5-25.1-6.3l-58.9,35.1l-26.5,15.8l-1.5,0.9l7,11.8L807,717.6
		l29.6-17.7l57.3-34.2C902.5,660.5,905.4,649.3,900.2,640.6z"/>
</g>
</svg>
